<?xml version="1.0" standalone="no"?><!DOCTYPE svg PUBLIC "-//W3C//DTD SVG 1.1//EN" "http://www.w3.org/Graphics/SVG/1.1/DTD/svg11.dtd"><svg t="1716774030491" class="icon" viewBox="0 0 1024 1024" version="1.1" xmlns="http://www.w3.org/2000/svg" p-id="19954" xmlns:xlink="http://www.w3.org/1999/xlink" width="200" height="200"><path d="M709.290667 178.062222a282.282667 282.282667 0 0 1 95.118222 142.563556C930.872889 344.746667 1024 453.404444 1024 580.437333c0 146.204444-121.856 264.760889-272.213333 264.760889H529.635556l47.729777 49.720889a30.151111 30.151111 0 0 1 6.200889 30.264889c-3.640889 10.581333-12.572444 17.521778-22.584889 17.521778a22.641778 22.641778 0 0 1-16.384-7.168l-105.699555-110.193778 100.124444-118.385778a22.186667 22.186667 0 0 1 33.792-0.341333 30.264889 30.264889 0 0 1 1.137778 38.456889l-40.334222 47.616h218.225778c120.32 0 218.282667-95.232 218.282666-212.252445 0-106.894222-82.090667-197.404444-190.976-210.602666l-19.228444-2.332445-3.868445-18.432c-22.357333-105.927111-119.466667-182.784-230.855111-182.784-129.934222 0-235.633778 102.798222-235.633778 229.148445 0 2.616889 0 5.347556 0.170667 8.647111l1.137778 30.151111-30.947556-3.128889a194.901333 194.901333 0 0 0-19.512889-0.967111C137.557333 430.08 53.930667 511.431111 53.930667 611.384889c0 99.953778 83.626667 181.304889 186.424889 181.304889h64.910222c14.734222 0.284444 26.510222 11.946667 26.510222 26.225778a26.624 26.624 0 0 1-26.510222 26.282666H240.355556c-132.551111 0-240.355556-104.846222-240.355556-233.813333C0 484.010667 105.472 380.017778 236.088889 377.742222c6.826667-105.585778 73.955556-198.542222 173.795555-240.64a296.220444 296.220444 0 0 1 299.406223 40.96zM364.487111 406.300444l93.752889 243.825778h-34.531556l-26.737777-73.898666H301.169778l-25.144889 73.898666h-32.199111l87.950222-243.825778h32.711111z m204.401778 0c15.189333 0 26.851556 0.739556 34.872889 2.275556 11.207111 2.048 20.650667 5.859556 28.273778 11.434667 7.566222 5.575111 13.710222 13.425778 18.375111 23.552 4.664889 10.353778 7.054222 21.731556 6.940444 33.223111 0 20.764444-6.200889 38.286222-18.602667 52.622222-12.401778 14.392889-34.816 21.617778-67.185777 21.617778H512.796444v99.043555H482.417778V406.357333H568.888889z m162.531555 0v243.825778h-30.321777V406.357333h30.321777z m-384 25.6a326.485333 326.485333 0 0 1-12.344888 46.592l-25.144889 71.509334h77.653333l-23.893333-67.527111c-7.281778-20.48-12.743111-37.319111-16.270223-50.574223z m223.971556 3.185778h-58.595556V522.24h59.164445c19.626667 0 33.564444-3.925333 41.756444-11.662222 8.192-7.793778 12.344889-18.716444 12.344889-32.768a46.136889 46.136889 0 0 0-7.224889-26.168889 34.133333 34.133333 0 0 0-19.171555-14.392889c-5.12-1.479111-14.506667-2.161778-28.273778-2.161778z" fill="#33353B" p-id="19955"></path></svg>