<?xml version="1.0" standalone="no"?><!DOCTYPE svg PUBLIC "-//W3C//DTD SVG 1.1//EN" "http://www.w3.org/Graphics/SVG/1.1/DTD/svg11.dtd"><svg t="1720373647953" class="icon" viewBox="0 0 1024 1024" version="1.1" xmlns="http://www.w3.org/2000/svg" p-id="30092" xmlns:xlink="http://www.w3.org/1999/xlink" width="200" height="200"><path d="M342.447158 875.951158l60.954947 61.008842a215.578947 215.578947 0 1 1-304.882526-304.882526l61.008842 60.954947a129.347368 129.347368 0 1 0 182.918737 182.918737z m533.557895-533.557895a129.347368 129.347368 0 1 0-182.972632-182.864842L494.861474 357.699368a43.115789 43.115789 0 0 1-60.954948-61.008842l198.170948-198.170947a215.578947 215.578947 0 1 1 304.882526 304.882526l-198.170947 198.170948a43.115789 43.115789 0 1 1-61.008842-60.954948l198.170947-198.170947zM403.348211 937.013895a215.578947 215.578947 0 1 1-304.882527-304.882527L296.690526 433.852632a43.115789 43.115789 0 0 1 61.008842 60.954947L159.528421 693.086316a129.347368 129.347368 0 1 0 182.918737 182.918737l198.170947-198.170948a43.115789 43.115789 0 1 1 60.954948 61.008842l-198.170948 198.170948z m38.103578-403.994948L533.018947 441.505684a43.115789 43.115789 0 1 1 61.008842 61.008842L502.514526 593.92a43.115789 43.115789 0 1 1-61.008842-61.008842z" fill="#d81e06" p-id="30093"></path></svg>