<?xml version="1.0" standalone="no"?><!DOCTYPE svg PUBLIC "-//W3C//DTD SVG 1.1//EN" "http://www.w3.org/Graphics/SVG/1.1/DTD/svg11.dtd"><svg t="1720305104767" class="icon" viewBox="0 0 1024 1024" version="1.1" xmlns="http://www.w3.org/2000/svg" p-id="6125" xmlns:xlink="http://www.w3.org/1999/xlink" width="200" height="200"><path d="M426.67008 85.33504H341.33504V0h85.33504v85.33504z m-341.33504 512H0v85.33504h85.33504v-85.33504z m0-128H0v85.33504h85.33504V469.33504z m0-128H0v85.33504h85.33504V341.33504z m0-213.33504c0-23.51616 19.1232-42.66496 42.66496-42.66496h170.67008V0H128C57.2928 0 0 57.31328 0 128v170.67008h85.33504V128z m469.32992-128H469.33504v85.33504h85.33504V0z m127.99488 0h-85.32992v85.33504h85.32992V0z m-142.07488 495.35488c0-13.89568-9.12896-16.91648-23.00416-16.91648h-19.82976v33.81248h19.82976c13.952 0 23.00416-2.95424 23.00416-16.896zM170.67008 170.67008h682.67008v682.67008H170.67008V170.67008z m428.45696 366.75072c0 40.3712 23.37792 59.91424 63.45728 59.91424 39.04512 0 63.58528-19.50208 63.58528-59.91424V446.58176h-38.7072v90.83392c0 20.36736-6.88128 26.33216-24.87808 26.33216-18.87232 0-24.87296-8.99584-24.87296-26.33216V446.58176h-38.5792v90.83904z m-140.0832 56.78592h38.7072v-50.04288h28.25216c33.61792 0 52.2496-20.23936 52.2496-48.81408 0-29.02016-19.1232-48.768-52.2496-48.768H459.04384v147.62496z m-159.50336-73.21088c0 43.0848 27.54048 76.3392 72.62208 76.3392 35.16928 0 61.75232-20.37248 65.75104-64.91648h-37.5808c-6.29248 46.78656-62.08 41.07776-62.08-11.42272 0-23.99744 9.66656-43.93472 33.91488-43.93472 13.08672 0 24.58624 7.91552 27.00288 24.43776h37.5808c-3.82976-39.33184-31.12448-58.22976-64.58368-58.22976-44.79488 0.00512-72.6272 33.58208-72.6272 77.72672z m639.11936 33.67424H1024V469.33504h-85.34016v85.33504zM85.33504 896v-170.65984H0V896c0 70.66624 57.2928 128 128 128h170.67008v-85.32992H128c-23.54176 0-42.66496-19.16928-42.66496-42.67008z m853.3248 0c0 23.5008-19.11296 42.67008-42.65984 42.67008h-170.67008V1024H896c70.71232 0 128-57.33376 128-128v-170.65984h-85.34016V896z m0-213.32992H1024v-85.33504h-85.34016v85.33504z m0-256H1024V341.33504h-85.34016v85.33504zM896 0h-170.67008v85.33504H896c23.54688 0 42.65984 19.14368 42.65984 42.66496v170.67008H1024V128c0-70.68672-57.28768-128-128-128zM341.33504 1024h85.33504v-85.32992H341.33504V1024z m255.99488 0h85.32992v-85.32992h-85.32992V1024z m-127.99488 0h85.33504v-85.32992H469.33504V1024z" p-id="6126"></path></svg>