<?xml version="1.0" standalone="no"?><!DOCTYPE svg PUBLIC "-//W3C//DTD SVG 1.1//EN" "http://www.w3.org/Graphics/SVG/1.1/DTD/svg11.dtd"><svg t="1716713571618" class="icon" viewBox="0 0 1344 1024" version="1.1" xmlns="http://www.w3.org/2000/svg" p-id="22453" xmlns:xlink="http://www.w3.org/1999/xlink" width="262.5" height="200"><path d="M170.24064 284.8L14.08064 492.8a73.6 73.6 0 0 0-14.08 43.52v288A71.68 71.68 0 0 0 72.32064 896h816A71.68 71.68 0 0 0 960.00064 824.32v-288a73.6 73.6 0 0 0-14.08-43.52l-156.16-208a72.96 72.96 0 0 0-57.6-28.8H227.84064a72.96 72.96 0 0 0-57.6 28.8z" fill="#FFFFFF" p-id="22454"></path><path d="M704.00064 384l128 170.88V768H128.00064V554.88L256.00064 384h448m28.16-128H227.84064a73.6 73.6 0 0 0-57.6 28.8L14.08064 492.8a73.6 73.6 0 0 0-14.08 43.52v288A71.68 71.68 0 0 0 72.32064 896h816A71.68 71.68 0 0 0 960.00064 824.32v-288a73.6 73.6 0 0 0-14.08-43.52l-156.16-208a72.96 72.96 0 0 0-57.6-28.8z" p-id="22455"></path><path d="M256.00064 576m32 0l384 0q32 0 32 32l0 0q0 32-32 32l-384 0q-32 0-32-32l0 0q0-32 32-32Z" p-id="22456"></path><path d="M1024.00064 64a320 320 0 1 0 320 320 320 320 0 0 0-320-320z m64 512h-128V512h128z m0-128h-128V192h128z" p-id="22457" data-spm-anchor-id="a313x.search_index.0.i23.14503a81dXAGkU" class="selected" fill="#d81e06"></path></svg>