<?xml version="1.0" standalone="no"?><!DOCTYPE svg PUBLIC "-//W3C//DTD SVG 1.1//EN" "http://www.w3.org/Graphics/SVG/1.1/DTD/svg11.dtd"><svg t="1733819883213" class="icon" viewBox="0 0 1445 1024" version="1.1" xmlns="http://www.w3.org/2000/svg" p-id="5163" xmlns:xlink="http://www.w3.org/1999/xlink" width="282.2265625" height="200"><path d="M1112.485647 298.827294l17.528471 13.914353c41.562353 31.924706 73.968941 72.643765 84.570353 122.096941l2.228705 12.589177-0.12047 0.361411 1.024-0.12047c47.766588-12.830118 104.026353-10.661647 147.877647 11.324235l10.661647 5.963294 16.745412 10.420706-10.059294 17.227294c-37.586824 76.016941-117.639529 96.677647-196.969412 93.244236-121.012706 290.093176-376.289882 424.719059-687.525647 424.719058-156.009412 0-299.730824-57.825882-384.662588-185.825882l-9.155765-14.456471v-3.373176l-13.613177-24.214588a388.397176 388.397176 0 0 1-32.707764-178.597647l1.445647-18.371765 3.312941-20.600471h892.506353c31.683765 0.481882 63.247059-4.216471 93.485176-13.854117 13.432471-7.107765 30.960941-13.793882 45.056-21.022118-17.468235-24.094118-27.467294-55.175529-30.84047-86.437647-3.011765-37.526588 5.722353-86.618353 28.009412-118.663529l7.047529-9.035294 14.155294-17.28753z m-786.552471 386.710588c-41.441882 0-72.583529 31.322353-72.583529 69.210353 0 35.297882 30.057412 64.813176 64.993882 68.547765l7.529412 0.421647c38.369882 0 72.944941-31.081412 72.944941-69.029647 0-37.948235-31.262118-69.150118-72.884706-69.150118z m445.44-293.406117v134.746353H636.084706V392.252235h135.107765l0.12047-0.12047z m165.466353 0v134.746353h-134.686117V392.252235h134.324706l0.361411-0.12047z m-500.555294 0v134.746353H301.658353V392.252235h134.204235l0.542118-0.12047z m168.899765 0v134.746353h-134.324706V392.252235h133.541647l0.783059-0.12047z m-334.486588 0v134.746353H135.529412V392.252235h133.421176l1.686588-0.12047z m500.555294-169.261177l0.12047 0.180706v134.505412H636.084706V222.930824h135.107765z m-166.851765 0l0.783059 0.180706v134.505412h-134.324706V222.930824h133.481412z m-169.261176 0l0.903529 0.180706v134.505412H301.778824V222.930824h133.360941zM771.373176 50.236235V184.922353H636.084706V50.176h135.228235z" fill="#000000" p-id="5164"></path></svg>