<?xml version="1.0" standalone="no"?><!DOCTYPE svg PUBLIC "-//W3C//DTD SVG 1.1//EN" "http://www.w3.org/Graphics/SVG/1.1/DTD/svg11.dtd"><svg t="1716711061193" class="icon" viewBox="0 0 1024 1024" version="1.1" xmlns="http://www.w3.org/2000/svg" p-id="4835" xmlns:xlink="http://www.w3.org/1999/xlink" width="200" height="200"><path d="M903.7 171.2H236.3c-9 0-17.7 3.4-24.3 9.4L76.3 304.9c-7.5 6.8-11.7 16.5-11.7 26.6v403.9c0 19.9 16.1 36 36 36h81v45.9c0 19.9 16.1 36 36 36h212.3c19.9 0 36-16.1 36-36v-45.9h115.7v45.9c0 19.9 16.1 36 36 36h198.2c19.9 0 36-16.1 36-36v-45.9h71.9c19.9 0 36-16.1 36-36V227.2c0-30.9-25.1-56-56-56z m-16 528.1h-71.9c-19.9 0-36 16.1-36 36v45.9H653.6v-45.9c0-19.9-16.1-36-36-36H429.9c-19.9 0-36 16.1-36 36v45.9H253.6v-45.9c0-19.9-16.1-36-36-36h-81v-352l113.7-104.1h637.4v456.1z" p-id="4836"></path><path d="M667.2 617.2c82 0 148.6-66.7 148.6-148.6S749.1 320 667.2 320s-148.6 66.7-148.6 148.6 66.6 148.6 148.6 148.6z m0-225.3c42.3 0 76.6 34.4 76.6 76.6s-34.4 76.6-76.6 76.6-76.6-34.4-76.6-76.6 34.3-76.6 76.6-76.6zM207.8 551.8c0 19.9 16.1 36 36 36h183.6c19.9 0 36-16.1 36-36s-16.1-36-36-36H243.8c-19.8 0-36 16.1-36 36zM207.8 434.5c0 19.9 16.1 36 36 36H356c19.9 0 36-16.1 36-36s-16.1-36-36-36H243.8c-19.8 0-36 16.1-36 36z" p-id="4837"></path></svg>