<?xml version="1.0" standalone="no"?><!DOCTYPE svg PUBLIC "-//W3C//DTD SVG 1.1//EN" "http://www.w3.org/Graphics/SVG/1.1/DTD/svg11.dtd"><svg t="1716773910240" class="icon" viewBox="0 0 1121 1024" version="1.1" xmlns="http://www.w3.org/2000/svg" p-id="10686" xmlns:xlink="http://www.w3.org/1999/xlink" width="218.9453125" height="200"><path d="M397.074155 1022.415992H0V-0.024369h568.707473V516.87387h-48.738696V48.275678H48.738696v925.840267h348.335459v48.300047z m131.009615-483.024845h-487.386959v-48.324417h487.386959v48.300048z m-243.69348 305.932794a120.774488 120.774488 0 1 1 121.84674-120.750119 121.45683 121.45683 0 0 1-121.871109 120.750119z m0-193.22456a72.450071 72.450071 0 1 0 73.108044 72.450072 72.86435 72.86435 0 0 0-73.132413-72.450072zM451.905188 258.558782H119.848453V119.653498h332.056735v138.905284zM168.587149 210.307473h234.579343V168.051023H168.587149V210.307473z m283.318039 217.374583H119.848453v-138.905283h332.056735v138.905283zM168.587149 379.382009h234.579343v-42.280819H168.587149v42.256449z m91.385055 546.433888h-73.108044V877.540219h73.108044v48.300048z m121.846739 0h-73.108043V877.540219h73.108043v48.300048zM1120.990005 1023.926892H381.989529V491.06673H1120.990005v532.860162z m-690.26178-48.300048H1072.251309v-436.211328H430.728225v436.211328z m657.972394-339.635602h-657.972394v-48.300047h657.972394v48.300047z m-97.477392-24.150024h-48.738696v-72.450071h48.738696V611.914327z m-97.477392 0h-48.738696v-72.450071h48.738696V611.914327z m-23.394574 326.987911l-34.458258-34.117087 74.131557-73.473584-74.155926-73.424845 34.458258-34.117088 91.385055 90.483389a23.979438 23.979438 0 0 1 0 34.117087z m-236.723845 0L542.291099 848.297001a23.979438 23.979438 0 0 1 0-34.117087L633.603046 723.647787l34.458258 34.117087-74.082818 73.473584 74.107187 73.424845z m98.037886-18.130795l-44.181628-20.421513 76.349168-162.275488 44.181627 20.421513z" fill="#1A1A1A" p-id="10687"></path></svg>