<?xml version="1.0" standalone="no"?><!DOCTYPE svg PUBLIC "-//W3C//DTD SVG 1.1//EN" "http://www.w3.org/Graphics/SVG/1.1/DTD/svg11.dtd"><svg t="1716769964303" class="icon" viewBox="0 0 1024 1024" version="1.1" xmlns="http://www.w3.org/2000/svg" p-id="5234" xmlns:xlink="http://www.w3.org/1999/xlink" width="200" height="200"><path d="M854.592 288.64L639.424 73.408A32 32 0 0 0 616.768 64H192a32 32 0 0 0-32 32v832a32 32 0 0 0 32 32h640a32 32 0 0 0 32-32V311.424a32.192 32.192 0 0 0-9.408-22.72z m-64.384 37.376h-188.16v-188.16l188.16 188.16z m1.792 561.984h-560V136h302.016V352A41.984 41.984 0 0 0 576 394.048h216v494.016z m-288-269.952H320a8 8 0 0 0-8 8v48c0 4.416 3.584 8 8 8h184A8 8 0 0 0 512 674.048v-48a8 8 0 0 0-8-8z m-192-128v48c0 4.352 3.584 8 8 8h384a8 8 0 0 0 8-8v-48A8 8 0 0 0 704 482.048H320a8 8 0 0 0-8 8z" p-id="5235"></path></svg>