<?xml version="1.0" standalone="no"?><!DOCTYPE svg PUBLIC "-//W3C//DTD SVG 1.1//EN" "http://www.w3.org/Graphics/SVG/1.1/DTD/svg11.dtd"><svg t="1716711655694" class="icon" viewBox="0 0 1024 1024" version="1.1" xmlns="http://www.w3.org/2000/svg" p-id="10338" xmlns:xlink="http://www.w3.org/1999/xlink" width="200" height="200"><path d="M512 51.2a460.8 460.8 0 1 0 460.8 460.8 460.8 460.8 0 0 0-460.8-460.8z m0 900.608a440.32 440.32 0 1 1 310.784-129.024A437.248 437.248 0 0 1 512 951.808z" fill="#2c2c2c" p-id="10339"></path><path d="M706.56 266.752H413.696a28.16 28.16 0 0 0-27.648 27.648v150.528l-81.408 51.2a26.624 26.624 0 0 0-12.8 23.04v207.36a28.16 28.16 0 0 0 27.136 27.648h387.584a28.672 28.672 0 0 0 27.648-27.648V294.4a28.16 28.16 0 0 0-27.648-27.648z m6.656 460.8c0 4.608 0 6.656-6.656 6.656H317.44c-4.608 0-6.656 0-6.656-6.656V522.24v-6.144l79.872-51.2a26.624 26.624 0 0 0 12.288-23.04V296.448A6.144 6.144 0 0 1 409.6 289.792h295.424c4.096 0 6.144 0 6.144 6.656v433.664z" fill="#2c2c2c" p-id="10340"></path><path d="M476.16 335.872a10.24 10.24 0 0 0-10.24 10.752V476.16a9.728 9.728 0 0 0 10.24 10.752 9.728 9.728 0 0 0 10.752-10.752V346.624a11.264 11.264 0 0 0-10.752-10.752z m81.92 0a10.24 10.24 0 0 0-10.24 10.752V476.16a10.24 10.24 0 1 0 20.48 0V346.624a11.264 11.264 0 0 0-10.24-10.752z m81.92 0a10.24 10.24 0 0 0-10.752 10.752V476.16a9.728 9.728 0 0 0 10.752 10.752 9.728 9.728 0 0 0 10.24-10.752V346.624a11.264 11.264 0 0 0-10.24-10.752z" fill="#2c2c2c" p-id="10341"></path></svg>