<?xml version="1.0" standalone="no"?><!DOCTYPE svg PUBLIC "-//W3C//DTD SVG 1.1//EN" "http://www.w3.org/Graphics/SVG/1.1/DTD/svg11.dtd"><svg t="1720362185410" class="icon" viewBox="0 0 2048 1024" version="1.1" xmlns="http://www.w3.org/2000/svg" p-id="10910" xmlns:xlink="http://www.w3.org/1999/xlink" width="400" height="200"><path d="M279.04 256H403.2v120.32H279.04z" p-id="10911" fill="#2c2c2c"></path><path d="M434.56 406.4H248.32V225.92h186.24z m-124.16-60.16h64v-60.16h-64zM620.8 256h124.16v120.32H620.8z" p-id="10912" fill="#2c2c2c"></path><path d="M775.68 406.4H589.44V225.92h186.24z m-124.16-60.16h64v-60.16h-64zM961.92 256h124.16v120.32h-124.16z" p-id="10913" fill="#2c2c2c"></path><path d="M1116.8 406.4h-185.6V225.92h185.6z m-123.52-60.16h64v-60.16h-64zM1303.04 256h124.16v120.32h-124.16z" p-id="10914" fill="#2c2c2c"></path><path d="M1458.56 406.4h-186.24V225.92h186.24z m-124.16-60.16h64v-60.16h-64zM1644.8 256h124.16v120.32H1644.8z" p-id="10915" fill="#2c2c2c"></path><path d="M1799.68 406.4h-186.24V225.92h186.24z m-124.16-60.16h64v-60.16h-64zM372.48 724.48h62.08v240.64h-62.08zM549.76 724.48h62.08v240.64h-62.08zM727.04 724.48h62.08v240.64h-62.08zM904.32 724.48h62.08v240.64h-62.08zM1081.6 724.48h62.08v240.64h-62.08zM1258.88 724.48h62.08v240.64h-62.08zM1436.16 724.48h62.08v240.64h-62.08zM1613.44 724.48h62.08v240.64h-62.08z" p-id="10916" fill="#2c2c2c"></path><path d="M2048 1024H0V627.84h124.16v-64H0V0h2048v561.28h-124.16v64H2048zM64 960h1920v-266.24h-122.24v-198.4H1984V64H64v431.36h122.24v198.4H64z" p-id="10917" fill="#2c2c2c"></path></svg>