<?xml version="1.0" standalone="no"?><!DOCTYPE svg PUBLIC "-//W3C//DTD SVG 1.1//EN" "http://www.w3.org/Graphics/SVG/1.1/DTD/svg11.dtd"><svg t="1733404029785" class="icon" viewBox="0 0 1024 1024" version="1.1" xmlns="http://www.w3.org/2000/svg" p-id="5449" xmlns:xlink="http://www.w3.org/1999/xlink" width="200" height="200"><path d="M564.408 810.042a21.449 21.449 0 0 1-21.459-21.449V536.276a21.459 21.459 0 0 1 14.905-20.43l231.768-74.256a21.449 21.449 0 0 1 27.972 20.43v242.318a21.469 21.469 0 0 1-14.126 20.17L571.7 808.752a21.309 21.309 0 0 1-7.292 1.289z m21.448-258.112v206.034l188.861-68.651V491.42z m210.32 152.408z" fill="#515151" p-id="5450"></path><path d="M564.388 810.042a21.269 21.269 0 0 1-12.937-4.346L441.97 722.78a21.459 21.459 0 0 1-8.502-17.103V448.454a21.449 21.449 0 0 1 34.875-16.754l109.49 87.822A21.459 21.459 0 0 1 550.981 553l-74.605-59.85v201.868l100.979 76.473a21.449 21.449 0 0 1-12.987 38.552z" fill="#515151" p-id="5451"></path><path d="M796.156 483.479a21.309 21.309 0 0 1-11.808-3.557L661.74 399.003l-199.8 69.73a21.459 21.459 0 0 1-14.136-40.52l209.79-73.216a21.449 21.449 0 0 1 18.891 2.348l131.459 86.793a21.459 21.459 0 0 1-11.838 39.36z" fill="#515151" p-id="5452"></path><path d="M352.62 693.369a21.469 21.469 0 0 1-21.46-21.459V419.602a21.439 21.439 0 0 1 14.906-20.43l231.768-74.265a21.449 21.449 0 0 1 27.972 20.43v57.942a21.459 21.459 0 0 1-42.907 0v-28.522l-188.811 60.51V641.28l70.6-25.655a21.459 21.459 0 1 1 14.655 40.33l-99.35 36.124a21.548 21.548 0 0 1-7.374 1.289z" fill="#515151" p-id="5453"></path><path d="M352.6 693.369a21.349 21.349 0 0 1-12.938-4.356l-109.48-82.917a21.479 21.479 0 0 1-8.502-17.113V331.8a21.449 21.449 0 0 1 34.876-16.733l109.49 87.832a21.459 21.459 0 0 1-26.853 33.467l-74.606-59.85v201.828l100.98 76.463a21.459 21.459 0 0 1-12.988 38.562z" fill="#515151" p-id="5454"></path><path d="M584.368 366.765a21.309 21.309 0 0 1-11.809-3.526l-122.607-80.92-199.8 69.721a21.449 21.449 0 1 1-14.136-40.51l209.79-73.226a21.419 21.419 0 0 1 18.891 2.357l131.459 86.784a21.459 21.459 0 0 1-11.788 39.32z" fill="#515151" p-id="5455"></path><path d="M231.68 870.022a77.972 77.972 0 0 1-77.702-77.742v-560.6a77.972 77.972 0 0 1 77.702-77.702h124.516V102.03H231.9c-71.428 0-129.87 58.442-129.87 129.87v560.16c0 71.428 58.442 129.87 129.87 129.87h124.296v-51.948zM792.06 102.03H667.764v51.948H792.28a77.972 77.972 0 0 1 77.742 77.742v560.56a77.972 77.972 0 0 1-77.742 77.742H667.764v51.948H792.06c71.428 0 129.87-58.442 129.87-129.87V231.9c0-71.428-58.442-129.87-129.87-129.87z m-305.455 1.159h50.75v50.75h-50.75z m0 767.063h50.75V921h-50.75z" fill="#515151" p-id="5456"></path></svg>