<?xml version="1.0" standalone="no"?><!DOCTYPE svg PUBLIC "-//W3C//DTD SVG 1.1//EN" "http://www.w3.org/Graphics/SVG/1.1/DTD/svg11.dtd"><svg t="1720369422705" class="icon" viewBox="0 0 1024 1024" version="1.1" xmlns="http://www.w3.org/2000/svg" p-id="18234" xmlns:xlink="http://www.w3.org/1999/xlink" width="200" height="200"><path d="M793.6 102.4H230.058667A127.658667 127.658667 0 0 0 102.4 230.058667v563.541333C102.4 864.256 159.402667 921.6 230.058667 921.6h563.541333c70.656 0 128-57.344 128-128V230.058667A128 128 0 0 0 793.6 102.4zM819.2 597.333333c0 18.773333-15.36 34.133333-34.133333 34.133334h-70.997334v61.44c0 18.773333-15.36 34.133333-34.133333 34.133333h-57.002667V785.066667c0 18.773333-15.018667 34.133333-34.133333 34.133333h-153.941333c-18.773333 0-34.133333-15.36-34.133334-34.133333v-58.026667h-57.002666c-18.773333 0-34.133333-15.36-34.133334-34.133333v-61.44H238.933333c-19.114667 0-34.133333-15.36-34.133333-34.133334V238.933333c0-19.114667 15.018667-34.133333 34.133333-34.133333h546.133334c18.773333 0 34.133333 15.018667 34.133333 34.133333v358.4z" p-id="18235" fill="#2c2c2c"></path><path d="M307.2 273.066667c-18.773333 0-34.133333 15.36-34.133333 34.133333v51.541333c0 18.773333 15.36 34.133333 34.133333 34.133334s34.133333-15.36 34.133333-34.133334V307.2c0-18.773333-15.36-34.133333-34.133333-34.133333zM443.733333 273.066667c-18.773333 0-34.133333 15.36-34.133333 34.133333v51.541333c0 18.773333 15.36 34.133333 34.133333 34.133334s34.133333-15.36 34.133334-34.133334V307.2c0-18.773333-15.36-34.133333-34.133334-34.133333zM580.266667 273.066667c-18.773333 0-34.133333 15.36-34.133334 34.133333v51.541333c0 18.773333 15.36 34.133333 34.133334 34.133334s34.133333-15.36 34.133333-34.133334V307.2c0-18.773333-15.36-34.133333-34.133333-34.133333zM716.8 273.066667c-18.773333 0-34.133333 15.36-34.133333 34.133333v51.541333c0 18.773333 15.36 34.133333 34.133333 34.133334s34.133333-15.36 34.133333-34.133334V307.2c0-18.773333-15.36-34.133333-34.133333-34.133333z" p-id="18236" fill="#2c2c2c"></path></svg>