<?xml version="1.0" standalone="no"?><!DOCTYPE svg PUBLIC "-//W3C//DTD SVG 1.1//EN" "http://www.w3.org/Graphics/SVG/1.1/DTD/svg11.dtd"><svg t="1717035646122" class="icon" viewBox="0 0 1024 1024" version="1.1" xmlns="http://www.w3.org/2000/svg" p-id="6258" xmlns:xlink="http://www.w3.org/1999/xlink" width="200" height="200"><path d="M783.552 662.848l-60.352-60.416 60.352-60.288a213.312 213.312 0 1 0-301.696-301.696l-60.352 60.352-60.352-60.352 60.416-60.288a298.688 298.688 0 0 1 422.4 422.4l-60.416 60.288z m-120.704 120.704l-60.352 60.288a298.688 298.688 0 0 1-422.4-422.4l60.352-60.288 60.352 60.416-60.352 60.288a213.312 213.312 0 1 0 301.696 301.696l60.352-60.288 60.352 60.288zM632.64 330.88l60.416 60.416-301.696 301.632-60.416-60.352 301.696-301.632z" fill="#2c2c2c" p-id="6259"></path></svg>