<?xml version="1.0" standalone="no"?><!DOCTYPE svg PUBLIC "-//W3C//DTD SVG 1.1//EN" "http://www.w3.org/Graphics/SVG/1.1/DTD/svg11.dtd"><svg t="1733315786568" class="icon" viewBox="0 0 1024 1024" version="1.1" xmlns="http://www.w3.org/2000/svg" p-id="8917" xmlns:xlink="http://www.w3.org/1999/xlink" width="200" height="200"><path d="M512 0C228.864 0 0 229.376 0 512s229.376 512 512 512 512-229.376 512-512S794.624 0 512 0z m268.288 386.048L470.016 696.32c-9.216 9.216-18.432 14.336-28.16 14.848-12.288 2.56-24.064-2.048-36.352-13.824L242.688 535.04c-19.456-19.456-19.456-39.424 0-58.88s39.424-19.456 58.88 0l135.168 135.168L720.384 327.68c19.456-19.456 39.424-19.456 58.88 0 20.992 18.944 20.992 38.912 1.024 58.368z" p-id="8918"></path></svg>