<?xml version="1.0" standalone="no"?><!DOCTYPE svg PUBLIC "-//W3C//DTD SVG 1.1//EN" "http://www.w3.org/Graphics/SVG/1.1/DTD/svg11.dtd"><svg t="1733317343003" class="icon" viewBox="0 0 1024 1024" version="1.1" xmlns="http://www.w3.org/2000/svg" p-id="11829" xmlns:xlink="http://www.w3.org/1999/xlink" width="200" height="200"><path d="M100.8 566.6c-12.5 0-24.8-5.8-32.6-16.8-12.8-18-8.7-43 9.3-55.8l427.7-305.2c14.4-10.2 33.7-9.9 47.7 0.9l394.8 305.2c17.5 13.5 20.7 38.6 7.2 56.1s-38.6 20.7-56.1 7.2l-371.3-287L124 559.1c-7.1 5-15.2 7.5-23.2 7.5z" p-id="11830"></path><path d="M100.8 842.7c-12.5 0-24.8-5.8-32.6-16.8-12.8-18-8.7-43 9.3-55.8l427.7-305.2c14.4-10.2 33.7-9.9 47.7 0.9L947.7 771c17.5 13.5 20.7 38.6 7.2 56.1s-38.6 20.7-56.1 7.2l-371.3-287L124 835.2c-7.1 5-15.2 7.5-23.2 7.5z" p-id="11831"></path></svg>