<?xml version="1.0" standalone="no"?><!DOCTYPE svg PUBLIC "-//W3C//DTD SVG 1.1//EN" "http://www.w3.org/Graphics/SVG/1.1/DTD/svg11.dtd"><svg t="1717032042447" class="icon" viewBox="0 0 1024 1024" version="1.1" xmlns="http://www.w3.org/2000/svg" p-id="3683" xmlns:xlink="http://www.w3.org/1999/xlink" width="200" height="200"><path d="M884.224 448.512c-17.92-17.92-41.472-28.16-66.56-28.16H273.408V296.96c0-64 24.576-123.904 69.632-168.96s104.96-69.632 168.96-69.632c62.976 0 122.88 24.576 168.96 69.632 45.056 45.056 69.632 104.96 69.632 168.96 0 16.384 12.8 28.672 28.672 28.672 16.384 0 29.696-12.8 29.696-28.672 0-78.848-30.72-153.6-87.04-209.92S591.36 0 512 0C433.152 0 358.4 31.232 302.08 87.04 245.76 143.36 215.04 218.112 215.04 296.96v123.392h-8.704c-25.088 0-48.64 9.728-66.56 28.16-17.92 17.92-28.16 41.472-28.16 66.56v415.232c0 25.088 9.728 48.64 28.16 66.56 17.408 17.408 41.472 27.136 66.56 27.136h611.328c24.576 0 48.128-9.728 66.56-27.136 17.92-17.92 28.16-41.984 28.16-66.56v-415.232c0-24.576-10.24-48.64-28.16-66.56z m-713.728 66.56c0-9.216 4.096-19.456 10.24-25.6 6.656-6.656 15.872-10.24 25.6-10.24h611.328c9.216 0 17.92 3.584 25.6 10.24 6.656 6.656 10.24 16.384 10.24 25.6v415.232c0 9.216-3.584 17.92-10.24 24.576-7.68 7.168-16.896 10.752-25.6 10.752H206.336c-9.728 0-18.944-4.096-25.6-10.24-6.656-6.656-10.24-15.36-10.24-24.576v-415.744z" fill="#040000" p-id="3684"></path></svg>