<?xml version="1.0" standalone="no"?><!DOCTYPE svg PUBLIC "-//W3C//DTD SVG 1.1//EN" "http://www.w3.org/Graphics/SVG/1.1/DTD/svg11.dtd"><svg t="1733824408065" class="icon" viewBox="0 0 1024 1024" version="1.1" xmlns="http://www.w3.org/2000/svg" p-id="5928" xmlns:xlink="http://www.w3.org/1999/xlink" width="200" height="200"><path d="M377.186 478.323h269.677c9.314 0 17.234 3.292 23.844 9.887 6.576 6.59 9.878 14.52 9.878 23.79s-3.302 17.303-9.878 23.894c-6.61 6.595-14.535 9.887-23.844 9.887H377.186c-9.3 0-17.254-3.292-23.824-9.887-6.625-6.59-9.898-14.624-9.898-23.894s3.278-17.205 9.898-23.795c6.575-6.59 14.525-9.887 23.83-9.887m404.49-269.643h-539.32c-9.299 0-17.219 3.293-23.829 9.888-6.585 6.486-9.883 14.52-9.883 23.79v539.294c0 9.27 3.298 17.304 9.878 23.894 6.615 6.59 14.535 9.888 23.835 9.888h539.324c9.314 0 17.254-3.298 23.834-9.888 6.615-6.59 9.898-14.624 9.898-23.894V242.353c0-9.27-3.283-17.304-9.898-23.79-6.58-6.595-14.52-9.888-23.83-9.888m-539.358-67.464h539.334c27.893 0 51.737 9.888 71.483 29.664 19.76 19.676 29.639 43.57 29.639 71.478v539.294c0 27.908-9.878 51.703-29.634 71.478-19.746 19.776-43.59 29.664-71.483 29.664H242.338c-27.923 0-51.747-9.888-71.493-29.664-19.756-19.775-29.634-43.57-29.634-71.478V242.353c0-27.908 9.878-51.802 29.634-71.478 19.746-19.776 43.57-29.664 71.493-29.664" p-id="5929" fill="#d81e06"></path></svg>