<?xml version="1.0" standalone="no"?><!DOCTYPE svg PUBLIC "-//W3C//DTD SVG 1.1//EN" "http://www.w3.org/Graphics/SVG/1.1/DTD/svg11.dtd"><svg t="1733315496087" class="icon" viewBox="0 0 1024 1024" version="1.1" xmlns="http://www.w3.org/2000/svg" p-id="4449" xmlns:xlink="http://www.w3.org/1999/xlink" width="200" height="200"><path d="M576 810.68v-186.688h-128v186.688H0v128h1024v-128z" fill="#434A54" p-id="4450"></path><path d="M448 668.054h128v270.624h-128z" fill="#CCD1D9" p-id="4451"></path><path d="M341.344 810.68h341.344v128H341.344z" fill="#CCD1D9" p-id="4452"></path><path d="M896 407.976H128V170.664l128-85.344h512l128 85.344z" fill="#434A54" p-id="4453"></path><path d="M128 170.664h768v256H128z" fill="#656D78" p-id="4454"></path><path d="M768 298.664m-64 0a64 64 0 1 0 128 0 64 64 0 1 0-128 0Z" fill="#A0D468" p-id="4455"></path><path d="M128 469.32h768v255.984H128z" fill="#656D78" p-id="4456"></path><path d="M832 597.304c0 35.376-28.656 64-64 64s-64-28.624-64-64c0-35.312 28.656-63.984 64-63.984s64 28.672 64 63.984z" fill="#A0D468" p-id="4457"></path><path d="M234.672 341.32c5.89 0 11.234-2.376 15.094-6.25l42.656-42.656a21.292 21.292 0 0 0 6.25-15.094c0-11.782-9.546-21.344-21.328-21.344a21.36 21.36 0 0 0-15.094 6.25l-42.656 42.688a21.15 21.15 0 0 0-6.25 15.062 21.318 21.318 0 0 0 21.328 21.344zM320 341.32c5.906 0 11.234-2.376 15.094-6.25l42.656-42.656A21.292 21.292 0 0 0 384 277.32a21.32 21.32 0 1 0-36.406-15.094l-42.672 42.688a21.218 21.218 0 0 0-6.25 15.062A21.318 21.318 0 0 0 320 341.32zM405.344 341.32c5.89 0 11.218-2.376 15.078-6.25l42.656-42.656a21.24 21.24 0 0 0 6.266-15.094c0-11.782-9.562-21.344-21.344-21.344a21.32 21.32 0 0 0-15.078 6.25l-42.672 42.688a21.218 21.218 0 0 0-6.25 15.062c0 11.814 9.562 21.344 21.344 21.344zM298.672 575.992c0-11.812-9.546-21.312-21.328-21.312a21.206 21.206 0 0 0-15.094 6.25l-42.656 42.624a21.31 21.31 0 0 0-6.25 15.124c0 11.75 9.546 21.312 21.328 21.312 5.89 0 11.234-2.376 15.094-6.25l42.656-42.688a21.15 21.15 0 0 0 6.25-15.06zM384 575.992c0-11.812-9.546-21.312-21.328-21.312a21.234 21.234 0 0 0-15.094 6.25l-42.656 42.624a21.31 21.31 0 0 0-6.25 15.124c0 11.75 9.546 21.312 21.328 21.312 5.906 0 11.234-2.376 15.094-6.25l42.656-42.688a21.15 21.15 0 0 0 6.25-15.06zM448 554.68a21.196 21.196 0 0 0-15.078 6.25l-42.656 42.624a21.258 21.258 0 0 0-6.266 15.124c0 11.75 9.562 21.312 21.344 21.312 5.89 0 11.218-2.376 15.078-6.25l42.656-42.688a21.108 21.108 0 0 0 6.266-15.062c0-11.81-9.562-21.31-21.344-21.31z" fill="#434A54" p-id="4458"></path><path d="M128.016 426.664H896v42.656H128.016z" fill="#434A54" p-id="4459"></path><path d="M490.672 725.304h42.672v149.376h-42.672z" fill="#E6E9ED" p-id="4460"></path><path d="M341.344 853.304h341.344v42.688H341.344z" fill="#E6E9ED" p-id="4461"></path></svg>