<?xml version="1.0" standalone="no"?><!DOCTYPE svg PUBLIC "-//W3C//DTD SVG 1.1//EN" "http://www.w3.org/Graphics/SVG/1.1/DTD/svg11.dtd"><svg t="1716713629685" class="icon" viewBox="0 0 1024 1024" version="1.1" xmlns="http://www.w3.org/2000/svg" p-id="24865" xmlns:xlink="http://www.w3.org/1999/xlink" width="200" height="200"><path d="M53.333333 618.666667a32 32 0 0 1 32-32h853.333334a32 32 0 0 1 32 32V896a32 32 0 0 1-32 32H85.333333a32 32 0 0 1-32-32v-277.333333z m64 32v213.333333h789.333334v-213.333333H117.333333z" p-id="24866" fill="#2c2c2c"></path><path d="M757.333333 810.666667a53.333333 53.333333 0 1 0 0-106.666667 53.333333 53.333333 0 0 0 0 106.666667z" p-id="24867" fill="#2c2c2c"></path><path d="M161.493333 100.053333a32 32 0 0 1 31.317334-25.386666H832.426667a32 32 0 0 1 31.36 25.472l106.24 512-62.72 13.013333L806.4 138.666667H218.794667L116.650667 625.237333l-62.634667-13.141333 107.52-512zM181.333333 757.333333A32 32 0 0 1 213.333333 725.333333h362.666667a32 32 0 0 1 0 64H213.333333a32 32 0 0 1-32-32z" p-id="24868" fill="#2c2c2c"></path></svg>