<?xml version="1.0" standalone="no"?><!DOCTYPE svg PUBLIC "-//W3C//DTD SVG 1.1//EN" "http://www.w3.org/Graphics/SVG/1.1/DTD/svg11.dtd"><svg t="1716713452066" class="icon" viewBox="0 0 1024 1024" version="1.1" xmlns="http://www.w3.org/2000/svg" p-id="21171" xmlns:xlink="http://www.w3.org/1999/xlink" width="200" height="200"><path d="M850.7708825 82.48691683C766.07816188 46.19003656 645.08856098 28.04159642 512 28.04159642S257.92183812 46.19003656 173.2291175 82.48691683C76.43743678 124.83327714 28.04159642 173.2291175 28.04159642 233.72391795v562.60164416C28.04159642 850.7708825 76.43743678 905.2162029 173.2291175 941.51308317c84.69272062 36.29688026 205.68232151 54.4453204 338.7708825 54.44532041s254.07816188-18.14844015 338.7708825-54.44532041c90.74220068-36.29688026 145.18752108-90.74220068 145.18752108-145.18752106V233.72391795c0-60.49480045-48.39584037-108.8906408-145.18752108-151.23700112zM796.32556211 330.51559866c-78.64324058 30.24740023-187.53388139 42.34636031-284.32556211 42.34636031-102.84116076 0-205.68232151-12.09896008-284.32556211-42.34636031-90.74220068-24.19792017-133.08856098-60.49480045-133.08856097-96.79168071s48.39584037-72.59376053 133.08856097-102.84116077C306.31767849 100.63535696 409.15883924 88.53639687 512 88.53639687c96.79168071 0 205.68232151 18.14844015 284.32556211 42.34636031 84.69272062 30.24740023 133.08856098 66.54428049 133.08856097 102.84116077S887.06776276 306.31767849 796.32556211 330.51559866z m6.04948003 175.43492128C723.73180156 530.14844015 614.84116076 548.29688026 512 548.29688026c-102.84116076 0-205.68232151-18.14844015-290.37504214-42.34636032C136.93223724 475.70311974 88.53639687 439.40623947 88.53639687 403.1093592v-66.5442805c60.49480045 24.19792017 102.84116076 54.4453204 169.38544125 66.5442805 78.64324058 18.14844015 163.3359612 30.24740023 254.07816188 30.24740022s175.4349213-12.09896008 254.07816188-30.24740022C832.62244237 391.01039912 874.96880267 360.76299889 935.46360313 336.5650787v72.59376054c0 30.24740023-48.39584037 66.54428049-133.08856099 96.7916807z m0 193.58336145C723.73180156 723.73180156 614.84116076 741.88024171 512 741.88024171c-102.84116076 0-205.68232151-18.14844015-290.37504214-42.34636032C136.93223724 675.3359612 88.53639687 639.03908094 88.53639687 596.69272062v-90.74220068c60.49480045 30.24740023 102.84116076 54.4453204 169.38544125 72.59376055 78.64324058 18.14844015 163.3359612 30.24740023 254.07816188 30.24740022s175.4349213-12.09896008 254.07816188-30.24740022c66.54428049-18.14844015 108.8906408-42.34636031 169.38544125-72.59376055v90.74220068c0 42.34636031-48.39584037 78.64324058-133.08856099 102.84116077zM512 935.46360313c-102.84116076 0-205.68232151-18.14844015-290.37504214-42.34636031C136.93223724 868.91932264 88.53639687 832.62244237 88.53639687 790.27608205v-90.74220066c60.49480045 30.24740023 102.84116076 54.4453204 169.38544125 72.59376054 72.59376053 18.14844015 163.3359612 30.24740023 248.02868182 30.24740021 90.74220068 0 175.4349213-12.09896008 254.07816188-30.24740021C832.62244237 753.97920179 874.96880267 729.78128162 935.46360313 699.53388139v90.74220066c0 36.29688026-48.39584037 72.59376053-133.08856099 102.84116077C723.73180156 923.36464304 608.79168071 935.46360313 512 935.46360313z m0 0" p-id="21172" fill="#2c2c2c"></path></svg>