<?xml version="1.0" standalone="no"?><!DOCTYPE svg PUBLIC "-//W3C//DTD SVG 1.1//EN" "http://www.w3.org/Graphics/SVG/1.1/DTD/svg11.dtd"><svg t="1716709152728" class="icon" viewBox="0 0 1024 1024" version="1.1" xmlns="http://www.w3.org/2000/svg" p-id="3728" xmlns:xlink="http://www.w3.org/1999/xlink" width="200" height="200"><path d="M311.75111111 311.75111111h399.28414814v399.28414814H311.75111111z" p-id="3729"></path><path d="M1007.16088889 336.0237037v-58.25422222H874.87525925v-0.02184533C874.87525925 211.50894459 820.98646282 157.62014815 754.74777125 157.62014815H745.01688889V25.33451852h-58.25422222v132.28562963h-77.6722963V25.33451852h-58.25422222v132.28562963h-77.6722963V25.33451852h-58.25422222v132.28562963h-77.6722963V25.33451852h-58.25422222v132.28562963h-8.51725274C204.22716682 157.62014815 150.33837037 211.50894459 150.33837037 277.74763615V277.76948148H18.05274075v58.25422222h132.28562962v77.6722963H18.05274075v58.25422222h132.28562962v77.6722963H18.05274075v58.25422223h132.28562962v77.67229628H18.05274075v58.25422222h132.28562962v0.02184534C150.33837037 810.06379615 204.22716682 863.95259259 270.46585837 863.95259259H278.98311111v132.28562963h58.25422222V863.95259259h77.6722963v132.28562963h58.25422222V863.95259259h77.6722963v132.28562963h58.25422222V863.95259259h77.6722963v132.28562963h58.25422222V863.95259259h9.73088236C820.98646282 863.95259259 874.87525925 810.06379615 874.87525925 743.82510459V743.80325925h132.28562964v-58.25422222H874.87525925v-77.67229628h132.28562964v-58.25422223H874.87525925v-77.6722963h132.28562964v-58.25422222H874.87525925v-77.6722963h132.28562964zM802.05748148 743.82510459C802.05748148 769.91207348 780.83474015 791.13481482 754.74777125 791.13481482H270.46585837C244.37888948 791.13481482 223.15614815 769.91207348 223.15614815 743.82510459V277.74763615C223.15614815 251.66066725 244.37888948 230.43792592 270.46585837 230.43792592h484.28069926C780.83474015 230.43792592 802.05748148 251.66066725 802.05748148 277.74763615v466.07746844z" p-id="3730"></path></svg>